<?xml version="1.0" standalone="no"?>
<!DOCTYPE svg PUBLIC "-//W3C//DTD SVG 20010904//EN"
 "http://www.w3.org/TR/2001/REC-SVG-20010904/DTD/svg10.dtd">
<svg version="1.0" xmlns="http://www.w3.org/2000/svg"
 width="512.000000pt" height="512.000000pt" viewBox="0 0 512.000000 512.000000"
 preserveAspectRatio="xMidYMid meet">

<g transform="translate(0.000000,512.000000) scale(0.100000,-0.100000)"
fill="#000000" stroke="none">
<path d="M1330 4425 c-519 -117 -1082 -885 -1269 -1732 -150 -674 -5 -1257
409 -1646 314 -296 766 -419 1245 -341 219 36 413 116 582 241 73 54 243 217
243 234 0 20 20 5 107 -79 407 -399 1031 -525 1578 -320 256 96 476 275 639
523 212 320 294 730 236 1171 -106 797 -592 1618 -1115 1882 -198 99 -397 103
-595 11 -267 -124 -561 -441 -773 -831 -27 -49 -50 -88 -52 -88 -2 0 -30 46
-61 103 -216 386 -483 673 -750 806 -142 71 -296 95 -424 66z m2455 -170 c285
-73 592 -386 831 -849 84 -165 124 -256 176 -406 193 -564 197 -1100 10 -1475
-195 -391 -585 -636 -1053 -662 -288 -15 -591 72 -829 238 -82 57 -250 221
-250 244 0 8 22 58 49 112 58 116 102 245 133 386 20 90 22 131 23 342 0 268
-10 354 -72 598 -33 135 -92 317 -131 407 l-19 45 54 110 c124 248 280 473
442 636 237 237 439 324 636 274z m-2220 -10 c409 -106 854 -716 1058 -1450
71 -255 101 -510 86 -740 -39 -615 -416 -1052 -1009 -1172 -128 -26 -394 -24
-521 5 -541 119 -889 496 -974 1054 -119 778 409 1953 1013 2257 120 61 233
75 347 46z"/>
<path d="M3397 3913 c-162 -170 -319 -407 -396 -600 -43 -106 -81 -272 -81
-351 0 -68 35 -112 89 -112 68 0 82 26 96 169 7 73 42 190 85 286 57 128 200
337 318 466 70 75 81 104 58 148 -19 36 -44 51 -84 51 -23 0 -42 -13 -85 -57z"/>
<path d="M582 2955 c-15 -11 -33 -53 -61 -139 -73 -230 -107 -456 -98 -660 12
-272 80 -435 170 -412 71 18 82 69 41 192 -41 122 -51 270 -30 435 18 151 51
298 91 411 35 97 35 136 0 165 -31 27 -80 30 -113 8z"/>
</g>
</svg>
