<?xml version="1.0" standalone="no"?>
<!DOCTYPE svg PUBLIC "-//W3C//DTD SVG 20010904//EN"
 "http://www.w3.org/TR/2001/REC-SVG-20010904/DTD/svg10.dtd">
<svg version="1.0" xmlns="http://www.w3.org/2000/svg"
 width="512.000000pt" height="512.000000pt" viewBox="0 0 512.000000 512.000000"
 preserveAspectRatio="xMidYMid meet">

<g transform="translate(0.000000,512.000000) scale(0.100000,-0.100000)"
fill="#000000" stroke="none">
<path d="M4289 5095 c-50 -27 -55 -63 -25 -183 48 -196 57 -343 31 -512 -16
-108 -56 -253 -85 -310 -17 -33 -25 -38 -65 -44 -163 -25 -368 -141 -484 -275
-82 -94 -160 -239 -186 -343 l-7 -27 -63 52 c-49 40 -63 57 -59 72 3 11 18 70
34 130 16 61 36 158 45 216 18 126 20 366 3 493 -10 77 -15 95 -39 118 -48 49
-132 32 -159 -31 -8 -21 -9 -48 -1 -105 16 -112 13 -342 -4 -462 -16 -106 -66
-297 -89 -341 -7 -14 -42 -49 -77 -77 -160 -129 -278 -332 -304 -523 l-7 -51
-44 31 c-58 41 -96 39 -165 -5 -158 -102 -295 -287 -345 -468 -8 -30 -17 -61
-20 -69 -3 -10 -17 -3 -47 26 -65 63 -115 93 -156 93 -52 0 -150 -61 -241
-150 -83 -82 -127 -141 -176 -238 l-31 -62 -37 45 c-25 30 -47 46 -69 50 -79
15 -289 -71 -416 -171 -130 -101 -237 -259 -291 -429 -17 -54 -24 -103 -27
-210 -6 -163 12 -263 71 -389 l34 -73 -62 -8 c-33 -5 -198 -9 -365 -10 l-304
-2 -29 -32 c-31 -35 -35 -68 -14 -110 24 -46 54 -53 271 -58 176 -5 306 1 545
23 l65 6 29 -86 c72 -215 227 -391 434 -496 286 -144 635 -111 899 84 84 61
99 92 83 165 -7 31 -21 77 -31 103 -10 27 -17 48 -14 48 2 0 41 -9 87 -20 113
-27 283 -27 396 0 204 49 401 183 509 346 45 68 46 103 4 170 l-30 49 105 12
c171 19 300 66 429 158 158 112 323 352 301 438 -3 14 -37 59 -76 100 l-70 75
38 7 c68 12 190 65 266 115 192 125 334 336 376 557 7 41 22 69 71 130 237
299 368 613 408 985 16 142 14 301 -4 344 -26 64 -109 78 -160 27 -24 -25 -25
-31 -25 -147 0 -418 -127 -779 -387 -1100 l-22 -27 -49 25 c-71 36 -172 66
-263 80 l-79 11 57 50 c94 80 160 164 213 270 69 137 92 230 92 380 1 140 -17
229 -69 352 l-34 82 35 95 c119 316 126 677 19 974 -23 65 -85 89 -144 57z
m-55 -1297 c36 -83 50 -155 49 -258 0 -113 -20 -196 -71 -300 -46 -95 -167
-220 -262 -273 -80 -44 -215 -86 -230 -71 -21 21 -61 156 -70 232 -16 140 19
298 92 419 71 118 229 240 368 284 89 29 98 27 124 -33z m-926 -532 c118 -124
172 -258 172 -426 0 -113 -17 -188 -66 -288 -35 -71 -125 -180 -184 -222 l-28
-20 -50 45 c-68 61 -137 165 -169 255 -35 99 -43 262 -18 360 32 126 116 258
208 332 27 21 52 38 57 38 4 0 39 -33 78 -74z m-629 -585 c243 -262 232 -669
-23 -921 l-66 -64 -53 55 c-65 70 -111 146 -144 241 -23 64 -26 90 -27 203 -1
153 19 235 86 349 39 67 149 186 171 186 6 0 31 -22 56 -49z m1564 -70 c42
-11 101 -32 132 -46 54 -26 56 -28 49 -58 -35 -166 -180 -345 -346 -427 -183
-90 -387 -93 -570 -8 -79 36 -78 33 -38 140 74 198 272 365 485 408 76 15 209
11 288 -9z m-2205 -395 c193 -207 226 -529 80 -773 -36 -60 -123 -155 -176
-192 l-33 -23 -57 60 c-118 123 -173 253 -180 427 -7 168 30 286 132 422 47
63 138 143 161 143 7 0 40 -29 73 -64z m1054 -69 l26 -22 -40 -45 -41 -45 7
49 c3 27 6 57 6 67 0 24 9 23 42 -4z m-1676 -320 c44 -94 68 -218 60 -315 -8
-102 -23 -155 -67 -247 -43 -90 -97 -160 -172 -223 -56 -46 -197 -122 -228
-122 -22 0 -91 136 -114 225 -20 78 -19 240 1 319 34 133 115 260 224 349 55
45 159 103 208 116 32 9 38 2 88 -102z m2185 -40 c87 -30 175 -79 238 -135
l45 -39 -29 -49 c-15 -27 -61 -81 -100 -120 -181 -180 -454 -238 -692 -149
-78 30 -174 89 -221 138 l-33 34 41 61 c80 120 211 218 350 261 93 29 103 30
220 27 80 -3 123 -10 181 -29z m-1158 -222 l38 -33 -58 -39 c-32 -22 -63 -42
-68 -45 -6 -4 1 29 15 73 14 43 27 79 30 79 3 -1 22 -16 43 -35z m-713 -446
c0 -6 -194 -79 -210 -79 -5 0 6 25 26 56 20 31 45 77 56 102 l21 46 53 -60
c29 -32 53 -61 54 -65z m1019 66 c104 -33 193 -88 272 -166 96 -95 96 -99 12
-180 -78 -74 -194 -138 -298 -164 -75 -19 -231 -19 -313 0 -69 16 -157 57
-225 104 -51 35 -167 156 -167 175 0 17 114 126 170 161 161 101 367 127 549
70z m-1124 -390 c192 -34 377 -171 463 -344 23 -46 42 -91 42 -100 0 -23 -90
-74 -185 -106 -309 -104 -652 39 -797 332 -22 45 -38 88 -35 96 10 28 101 70
221 102 136 38 177 40 291 20z"/>
<path d="M3133 4922 c-80 -62 -20 -194 80 -175 39 8 77 57 77 100 0 74 -98
121 -157 75z"/>
</g>
</svg>
