<?xml version="1.0" standalone="no"?>
<!DOCTYPE svg PUBLIC "-//W3C//DTD SVG 20010904//EN"
 "http://www.w3.org/TR/2001/REC-SVG-20010904/DTD/svg10.dtd">
<svg version="1.0" xmlns="http://www.w3.org/2000/svg"
 width="512.000000pt" height="512.000000pt" viewBox="0 0 512.000000 512.000000"
 preserveAspectRatio="xMidYMid meet">

<g transform="translate(0.000000,512.000000) scale(0.100000,-0.100000)"
fill="#000000" stroke="none">
<path d="M2462 5106 c-23 -8 -54 -21 -67 -30 -21 -14 -32 -15 -71 -5 -139 35
-299 -43 -366 -179 -30 -60 -33 -75 -33 -159 l-1 -92 -39 -31 c-54 -43 -109
-119 -136 -188 -25 -64 -31 -215 -11 -264 11 -26 9 -29 -32 -57 -108 -75 -201
-218 -227 -349 -17 -88 -7 -201 26 -292 17 -46 23 -76 17 -78 -6 -2 -38 -21
-72 -43 -75 -48 -90 -76 -67 -124 23 -47 59 -55 112 -25 119 68 146 80 200 95
88 22 276 17 302 -9 4 -3 -1 -14 -10 -23 -8 -10 -31 -50 -51 -89 -87 -176 -96
-355 -30 -594 13 -46 22 -86 20 -88 -2 -2 -21 1 -42 7 -117 31 -287 22 -426
-23 -49 -16 -71 -19 -78 -12 -21 26 -70 144 -81 195 -17 84 -7 213 25 303 25
72 26 79 12 106 -8 16 -23 32 -31 36 -60 23 -103 -18 -137 -127 -20 -61 -23
-94 -23 -217 1 -134 3 -151 29 -220 16 -41 40 -94 53 -117 l25 -43 -83 -77
c-172 -162 -259 -359 -259 -588 0 -238 86 -424 289 -626 315 -313 694 -480
988 -436 l52 7 3 -212 3 -213 30 -54 c34 -61 86 -110 154 -142 66 -33 196 -33
262 0 68 32 120 81 154 142 l30 54 3 213 3 213 47 -8 c132 -22 304 5 465 73
91 38 255 131 295 167 28 26 30 79 2 107 -32 32 -71 25 -157 -29 -182 -113
-311 -161 -455 -168 -53 -3 -108 -3 -123 1 l-26 7 57 62 c145 156 274 415 341
685 24 93 27 128 28 262 0 135 -3 165 -23 230 -26 83 -77 187 -116 240 -30 39
-28 41 54 60 76 18 221 16 300 -5 89 -23 205 -85 273 -146 76 -68 150 -181
183 -282 24 -71 28 -98 28 -202 0 -103 -4 -131 -27 -201 -31 -94 -80 -173
-171 -278 -50 -57 -66 -82 -66 -106 0 -40 31 -70 74 -70 29 0 43 10 101 71
165 175 245 366 245 584 0 229 -87 426 -259 588 l-83 77 25 43 c13 23 37 76
52 117 37 99 46 270 21 383 -41 184 -164 352 -326 445 -25 14 -46 27 -48 28
-2 1 8 35 23 76 33 89 43 202 26 290 -26 130 -119 274 -226 348 l-43 29 15 58
c35 147 -28 325 -152 423 l-40 32 0 91 c0 104 -19 158 -80 233 -68 83 -220
133 -320 105 -35 -9 -45 -8 -93 16 -65 32 -174 40 -240 19z m200 -171 c51 -34
78 -90 78 -161 0 -50 -2 -55 -17 -48 -10 4 -51 14 -90 23 -66 14 -80 14 -145
0 -40 -9 -81 -19 -90 -23 -16 -7 -18 -2 -18 48 0 157 155 245 282 161z m-416
-27 c-18 -63 -25 -123 -19 -164 l6 -45 -79 3 c-72 3 -79 5 -82 25 -10 69 51
163 123 188 54 19 58 19 51 -7z m705 -4 c57 -28 106 -118 97 -177 -3 -20 -10
-22 -82 -25 l-79 -3 6 45 c6 41 -1 101 -19 164 -6 21 -4 22 22 16 16 -4 41
-13 55 -20z m-303 -316 c59 -15 133 -84 162 -149 18 -43 21 -66 18 -135 -1
-45 -6 -86 -10 -90 -4 -3 -29 3 -55 14 -116 50 -257 52 -387 7 -39 -14 -72
-22 -75 -19 -12 12 -12 158 -1 200 15 54 84 134 137 160 69 33 118 35 211 12z
m-478 -83 c-34 -79 -45 -164 -31 -246 6 -39 10 -73 8 -75 -1 -2 -33 1 -70 6
-42 6 -90 7 -125 1 -41 -6 -59 -6 -64 3 -14 20 -8 146 7 183 44 104 139 170
247 172 l47 1 -19 -45z m892 29 c62 -21 121 -74 152 -136 21 -41 26 -66 26
-122 0 -39 -4 -76 -8 -82 -5 -9 -23 -9 -64 -3 -35 6 -83 5 -125 -1 -37 -5 -69
-8 -70 -6 -2 2 1 36 8 75 12 83 1 170 -31 246 l-19 45 43 0 c23 0 63 -7 88
-16z m-436 -425 c123 -23 238 -112 292 -227 24 -51 27 -69 27 -162 0 -81 -6
-122 -23 -177 -12 -40 -24 -73 -26 -73 -2 0 -28 11 -57 23 -97 43 -148 52
-279 52 -131 0 -182 -9 -279 -52 -29 -12 -55 -23 -57 -23 -2 0 -14 33 -26 73
-18 56 -23 96 -23 177 0 93 3 112 27 162 52 111 160 199 278 224 71 16 76 16
146 3z m-533 -75 c12 -4 9 -15 -14 -57 -65 -121 -77 -282 -34 -453 14 -53 23
-99 21 -101 -2 -2 -32 3 -67 13 -57 15 -206 21 -299 11 -21 -2 -28 6 -49 58
-34 81 -35 204 -2 287 42 107 131 192 241 231 44 15 174 23 203 11z m1133 -11
c113 -38 201 -121 246 -233 32 -81 31 -204 -3 -285 -21 -52 -28 -60 -49 -58
-93 10 -242 4 -299 -11 -35 -10 -65 -15 -67 -13 -3 3 5 38 16 78 13 45 24 118
27 184 6 126 -9 204 -56 291 -19 35 -25 55 -17 58 28 11 156 5 202 -11z m-482
-656 c271 -99 411 -379 342 -682 -13 -57 -54 -194 -60 -202 -1 -1 -45 20 -98
46 -134 67 -214 86 -368 86 -154 0 -234 -19 -368 -86 -53 -26 -97 -47 -98 -46
-6 8 -46 145 -60 202 -78 333 103 636 421 705 71 16 213 4 289 -23z m681 -82
c90 -24 173 -73 246 -145 165 -163 207 -416 103 -623 -40 -78 -35 -76 -112
-51 -139 45 -309 54 -426 23 -21 -6 -40 -9 -42 -7 -2 2 7 43 20 90 49 177 55
324 20 462 -16 62 -75 188 -102 219 -8 9 -12 20 -9 23 25 25 217 31 302 9z
m-737 -831 c42 -8 115 -34 161 -56 170 -81 307 -259 347 -448 76 -358 -204
-984 -506 -1133 -65 -32 -196 -32 -261 1 -302 150 -581 775 -505 1132 40 190
177 366 347 448 141 68 272 86 417 56z m-833 -116 c77 -16 79 -19 49 -58 -38
-52 -89 -156 -114 -235 -34 -107 -39 -297 -10 -435 58 -283 198 -578 353 -746
66 -72 65 -74 -51 -74 -136 0 -290 50 -449 144 -274 162 -475 374 -539 569
-24 71 -28 98 -28 202 0 104 4 131 28 202 52 159 168 295 315 372 146 76 285
94 446 59z m705 -1700 c52 0 101 6 128 15 l42 16 0 -190 c0 -210 -6 -237 -59
-282 -69 -58 -153 -58 -222 0 -53 45 -59 72 -59 282 l0 190 43 -16 c26 -9 75
-15 127 -15z"/>
</g>
</svg>
