<?xml version="1.0" standalone="no"?>
<!DOCTYPE svg PUBLIC "-//W3C//DTD SVG 20010904//EN"
 "http://www.w3.org/TR/2001/REC-SVG-20010904/DTD/svg10.dtd">
<svg version="1.0" xmlns="http://www.w3.org/2000/svg"
 width="512.000000pt" height="512.000000pt" viewBox="0 0 512.000000 512.000000"
 preserveAspectRatio="xMidYMid meet">

<g transform="translate(0.000000,512.000000) scale(0.100000,-0.100000)"
fill="#000000" stroke="none">
<path d="M3835 4846 c-197 -33 -357 -94 -543 -207 -107 -66 -214 -155 -402
-334 -344 -329 -526 -434 -860 -499 -211 -41 -345 -55 -625 -66 -334 -13 -584
-34 -718 -60 -326 -63 -512 -185 -613 -405 -50 -108 -67 -197 -68 -360 0 -127
2 -147 26 -216 94 -266 321 -451 728 -593 l145 -51 3 -61 3 -62 -93 -16 c-351
-63 -619 -158 -734 -259 -83 -73 -98 -138 -68 -285 32 -154 110 -287 251 -423
150 -145 257 -218 473 -323 688 -333 1727 -449 2665 -295 811 132 1437 465
1643 874 52 104 82 262 62 334 -40 149 -293 272 -745 361 -158 32 -446 74
-578 86 -43 4 -75 10 -70 14 4 5 51 20 103 34 142 38 299 98 445 171 512 253
783 615 846 1129 57 471 -188 1056 -561 1337 -86 65 -225 133 -325 159 -103
27 -282 34 -390 16z m349 -181 c260 -70 491 -298 639 -630 161 -361 165 -734
13 -1068 -179 -393 -645 -693 -1277 -822 -230 -47 -480 -77 -737 -88 l-93 -5
-57 38 c-32 20 -75 57 -95 81 l-38 44 148 7 c479 23 755 60 1036 139 794 224
1149 686 1030 1339 -68 376 -280 677 -550 782 -229 89 -466 45 -738 -135 -95
-63 -148 -110 -335 -292 -96 -94 -206 -196 -245 -227 -213 -170 -457 -287
-715 -342 -251 -54 -482 -80 -800 -91 -248 -8 -436 -23 -578 -46 -336 -53
-446 -158 -446 -424 -1 -89 2 -106 26 -150 33 -63 97 -137 155 -176 104 -72
246 -140 383 -184 74 -24 72 -22 54 -57 -9 -17 -22 -52 -30 -79 l-14 -48 -98
34 c-129 43 -211 80 -301 133 -254 148 -362 321 -348 554 21 328 169 483 533
557 121 25 387 48 634 56 316 10 528 33 765 81 318 66 554 200 855 489 336
322 466 413 710 495 179 60 371 73 514 35z m-61 -337 c144 -47 267 -166 356
-345 84 -168 124 -334 124 -518 0 -186 -42 -323 -144 -471 -265 -383 -973
-603 -1937 -604 l-124 0 -39 34 c-125 106 -377 183 -714 216 -187 19 -344 -3
-474 -67 l-73 -36 -106 32 c-253 78 -425 184 -470 291 -19 45 -10 159 15 203
54 93 256 135 758 157 457 19 649 41 920 101 384 87 696 268 1007 585 379 386
640 508 901 422z m-2358 -1874 c226 -30 401 -91 493 -169 24 -21 70 -74 104
-119 182 -242 299 -303 707 -366 375 -58 558 -123 657 -233 39 -44 44 -54 44
-98 0 -74 26 -98 126 -114 100 -16 172 -46 214 -91 19 -18 32 -36 29 -38 -6
-7 -386 -54 -569 -70 -594 -55 -1355 -57 -1950 -6 -280 24 -582 60 -594 71 -5
5 -3 27 4 55 16 55 55 84 113 84 29 0 46 7 68 29 16 16 29 38 29 47 0 10 -20
68 -45 129 -25 61 -59 165 -77 231 -29 108 -32 133 -32 269 -1 150 -1 150 32
217 87 178 260 224 647 172z m2040 -639 c573 -67 1020 -180 1120 -285 27 -28
27 -30 12 -54 -37 -55 -287 -152 -529 -205 l-87 -19 -27 45 c-37 63 -87 116
-143 152 -52 34 -151 71 -187 71 -17 0 -25 9 -35 38 -28 86 -117 181 -225 239
-69 38 -69 37 101 18z m-2820 -167 c20 -62 39 -119 42 -125 2 -7 -6 -17 -20
-22 -35 -14 -95 -68 -114 -105 -10 -17 -24 -58 -32 -92 l-16 -61 -147 33
c-179 39 -318 84 -411 130 -68 35 -117 73 -117 93 0 22 98 82 193 120 110 42
292 91 446 121 149 28 133 37 176 -92z m-603 -462 c217 -74 379 -107 750 -155
945 -123 2006 -119 2928 10 348 48 528 88 722 160 43 16 78 26 78 23 0 -17
-68 -99 -136 -164 -263 -251 -752 -456 -1324 -554 -1080 -185 -2285 6 -2895
460 -104 77 -292 280 -242 261 9 -3 63 -22 119 -41z"/>
<path d="M3845 4148 c-89 -11 -196 -43 -227 -68 -48 -37 -37 -115 19 -139 25
-10 42 -8 119 14 118 35 247 38 316 7 95 -42 168 -142 189 -260 14 -72 24 -91
56 -103 66 -25 116 19 115 99 -4 160 -124 341 -274 412 -54 26 -85 32 -208 44
-19 2 -66 -1 -105 -6z"/>
<path d="M1561 1512 c-39 -38 -40 -72 -3 -111 27 -30 30 -31 242 -55 587 -69
1184 -101 1415 -76 66 7 129 17 140 23 52 27 61 92 19 133 -25 26 -27 26 -117
18 -130 -13 -572 -9 -762 5 -151 12 -756 73 -857 87 -43 6 -49 4 -77 -24z"/>
</g>
</svg>
