<?xml version="1.0" standalone="no"?>
<!DOCTYPE svg PUBLIC "-//W3C//DTD SVG 20010904//EN"
 "http://www.w3.org/TR/2001/REC-SVG-20010904/DTD/svg10.dtd">
<svg version="1.0" xmlns="http://www.w3.org/2000/svg"
 width="512.000000pt" height="512.000000pt" viewBox="0 0 512.000000 512.000000"
 preserveAspectRatio="xMidYMid meet">

<g transform="translate(0.000000,512.000000) scale(0.100000,-0.100000)"
fill="#000000" stroke="none">
<path d="M2799 5106 c-145 -52 -205 -162 -180 -330 7 -44 21 -101 32 -128 10
-27 19 -51 19 -53 0 -2 -37 10 -82 27 -98 35 -214 47 -273 28 -59 -19 -131
-92 -155 -156 -23 -62 -27 -206 -7 -261 42 -112 134 -174 258 -174 65 0 179
23 232 46 26 11 22 -1 -37 -138 -62 -142 -104 -258 -135 -372 -12 -44 -24 -86
-27 -94 -2 -8 -21 13 -46 50 -47 74 -168 202 -250 265 -31 24 -91 63 -133 85
-66 36 -76 44 -70 63 14 46 17 207 6 268 -42 216 -268 458 -428 458 -113 0
-203 -115 -203 -259 0 -27 -2 -28 -67 -34 -186 -18 -268 -153 -188 -310 46
-92 162 -203 265 -255 116 -58 192 -75 305 -70 49 3 115 13 145 22 l56 18 54
-27 c202 -102 372 -282 451 -480 33 -83 37 -130 20 -235 -22 -139 -42 -400
-49 -631 l-7 -242 -55 74 c-30 41 -97 118 -149 172 l-95 98 35 28 c19 16 48
53 64 82 25 46 30 68 33 145 5 111 -12 171 -64 233 -85 99 -220 115 -411 50
l-52 -18 21 52 c37 92 50 159 46 232 -4 88 -29 138 -93 187 -65 49 -114 61
-232 56 -86 -3 -105 -7 -146 -31 -55 -33 -102 -93 -118 -151 -15 -56 -5 -186
20 -266 11 -35 19 -65 18 -67 -2 -1 -43 12 -91 28 -93 32 -178 41 -249 26 -50
-11 -120 -75 -155 -142 -23 -44 -26 -62 -27 -150 0 -90 3 -106 28 -157 53
-108 147 -156 284 -144 41 3 105 16 143 29 39 13 70 22 70 21 0 -2 -10 -27
-21 -56 -46 -114 -60 -215 -38 -292 14 -51 83 -124 144 -152 69 -33 227 -34
295 -3 128 58 176 169 145 336 -9 48 -23 103 -31 122 -8 19 -13 36 -11 38 2 2
35 -8 72 -22 82 -31 159 -90 280 -216 224 -232 354 -467 369 -664 4 -44 9
-100 12 -124 l6 -43 -65 46 c-69 49 -177 105 -242 126 -22 7 -75 30 -118 51
-223 109 -449 86 -647 -66 -153 -118 -203 -234 -146 -343 33 -64 139 -132 206
-132 18 0 20 -7 20 -63 0 -179 97 -284 238 -257 28 5 68 16 88 25 55 23 168
110 224 173 86 96 149 257 150 380 l0 42 43 -21 c64 -33 149 -102 215 -175
l59 -66 28 -201 c52 -386 149 -929 175 -977 24 -45 84 -53 126 -17 35 31 34
51 -10 272 -19 94 -46 243 -61 332 l-27 163 38 62 c148 245 435 534 748 752
52 36 96 66 99 66 3 0 -3 -26 -14 -57 -27 -77 -35 -180 -19 -237 17 -61 69
-119 138 -153 51 -25 68 -28 157 -28 118 0 169 19 234 90 46 50 63 102 62 189
0 53 -25 175 -46 228 -5 13 9 11 82 -15 115 -40 235 -44 300 -10 53 29 98 84
124 153 17 45 20 72 17 145 -3 79 -8 98 -34 145 -59 106 -174 154 -309 130
-38 -7 -94 -21 -124 -31 -30 -11 -55 -19 -57 -19 -1 0 11 37 28 83 35 96 46
201 28 267 -17 64 -100 143 -171 164 -59 18 -176 21 -229 6 -98 -27 -175 -111
-189 -207 -9 -62 4 -170 29 -241 11 -31 20 -59 20 -63 0 -4 -35 7 -77 24 -91
35 -216 48 -278 27 -51 -17 -111 -73 -142 -134 -35 -68 -43 -187 -19 -270 21
-72 90 -150 147 -168 22 -6 39 -14 39 -17 -1 -3 -44 -40 -97 -81 -123 -96
-336 -307 -437 -433 -43 -54 -80 -96 -82 -94 -7 7 -33 224 -53 443 -44 479
-51 1088 -16 1259 57 273 318 464 733 535 63 11 136 20 163 20 47 0 49 -1 70
-42 12 -24 56 -77 98 -119 126 -124 242 -169 436 -169 205 0 311 58 323 178 6
67 -19 139 -69 196 l-41 46 32 37 c68 77 100 196 69 256 -42 83 -133 126 -279
134 -230 12 -433 -86 -551 -266 l-50 -78 -97 -6 c-291 -17 -549 -109 -736
-262 -49 -39 -56 -42 -51 -23 3 13 14 68 25 123 19 94 76 310 87 328 3 5 13 1
22 -7 61 -55 222 -82 322 -53 65 19 131 73 161 131 41 80 36 179 -18 364 -7
24 -7 24 25 7 50 -25 178 -55 240 -55 107 0 194 63 238 171 27 67 24 208 -6
276 -29 66 -95 128 -153 143 -80 22 -191 13 -297 -25 -24 -8 -46 -14 -47 -12
-2 2 7 32 21 68 32 81 50 184 41 240 -14 94 -88 174 -188 204 -62 18 -180 19
-229 1z m186 -170 c59 -17 73 -48 56 -128 -7 -35 -27 -95 -44 -134 l-32 -72
-57 0 -57 0 -25 64 c-37 92 -52 193 -35 230 23 48 109 66 194 40z m-1404 -444
c126 -81 209 -229 209 -377 l0 -60 -131 130 c-128 127 -168 183 -169 234 0 37
22 101 35 101 6 0 31 -13 56 -28z m909 -17 c30 -8 80 -26 111 -41 l56 -26 -3
-56 c-3 -63 -5 -66 -113 -101 -68 -22 -160 -28 -191 -11 -36 19 -53 125 -29
187 25 66 62 76 169 48z m989 -31 c40 -51 23 -210 -24 -228 -45 -17 -123 -1
-227 46 l-68 31 0 57 0 56 53 22 c78 32 116 40 184 41 55 1 64 -2 82 -25z
m-510 -40 c58 -73 -26 -169 -108 -124 -31 16 -46 65 -31 100 16 38 35 49 82
50 28 0 41 -6 57 -26z m-1596 -190 c32 -16 287 -262 287 -276 0 -13 -101 -9
-155 6 -74 20 -146 59 -197 109 -54 52 -108 124 -108 144 0 33 118 44 173 17z
m1620 -194 c37 -94 46 -189 23 -224 -32 -50 -165 -58 -221 -14 -42 33 -33 123
29 261 l25 58 58 -3 58 -3 28 -75z m1113 -361 c25 -7 48 -18 51 -24 7 -21 -24
-72 -64 -102 l-36 -28 -204 -3 c-230 -4 -231 -3 -139 67 113 87 264 122 392
90z m-2622 -273 c28 -17 28 -20 24 -85 -4 -46 -16 -92 -39 -146 l-34 -80 -61
-3 -61 -3 -16 43 c-33 85 -47 144 -47 194 0 82 31 106 136 102 48 -2 79 -9 98
-22z m2564 -71 c56 -24 112 -86 112 -124 0 -20 -85 -33 -185 -29 -87 3 -109 8
-167 35 -62 29 -158 105 -158 124 0 5 81 9 180 9 140 0 189 -3 218 -15z
m-3132 -366 c32 -6 92 -24 132 -41 l72 -30 0 -59 0 -60 -47 -20 c-71 -31 -184
-53 -226 -45 -58 11 -71 42 -68 164 1 34 7 50 30 73 34 33 29 32 107 18z
m1006 -20 c63 -34 62 -213 -2 -246 -40 -21 -151 3 -251 53 l-45 22 1 58 1 57
49 19 c114 45 206 59 247 37z m-497 -52 c21 -17 27 -32 27 -62 0 -75 -81 -111
-136 -60 -78 72 28 192 109 122z m23 -364 c29 -70 42 -125 44 -188 1 -45 -3
-60 -20 -78 -20 -19 -33 -22 -106 -22 -76 0 -87 3 -110 24 -19 18 -26 35 -26
60 0 43 28 138 61 204 l23 47 57 0 57 0 20 -47z m2421 20 c46 -35 40 -116 -21
-254 l-29 -66 -59 1 c-43 1 -60 5 -64 16 -2 8 -16 48 -30 88 -25 71 -34 160
-20 197 18 47 168 59 223 18z m-522 -447 c28 -8 76 -25 106 -39 l55 -25 0 -57
-1 -57 -46 -21 c-105 -46 -218 -60 -258 -32 -47 33 -54 166 -11 220 23 30 72
33 155 11z m958 -10 c42 -18 60 -73 50 -154 -15 -118 -80 -130 -271 -50 l-72
30 0 58 0 58 52 21 c58 23 118 39 161 44 17 2 34 5 38 6 4 0 23 -5 42 -13z
m-487 -59 c32 -30 31 -89 -4 -116 -34 -27 -74 -27 -108 0 -48 38 -29 119 34
142 22 8 52 -2 78 -26z m27 -379 c17 -46 29 -101 32 -148 5 -67 3 -77 -16 -94
-44 -40 -190 -36 -223 5 -32 39 -21 121 34 242 l31 67 57 0 58 0 27 -72z
m-2102 -46 c24 -10 -245 -206 -304 -222 -43 -12 -133 1 -145 21 -15 24 83 111
183 163 73 37 215 58 266 38z m137 -175 c0 -62 -66 -192 -131 -256 -69 -69
-190 -133 -205 -109 -13 20 -5 87 14 125 14 28 58 66 163 145 79 58 147 107
152 107 4 1 7 -5 7 -12z"/>
</g>
</svg>
