<?xml version="1.0" standalone="no"?>
<!DOCTYPE svg PUBLIC "-//W3C//DTD SVG 20010904//EN"
 "http://www.w3.org/TR/2001/REC-SVG-20010904/DTD/svg10.dtd">
<svg version="1.0" xmlns="http://www.w3.org/2000/svg"
 width="512.000000pt" height="512.000000pt" viewBox="0 0 512.000000 512.000000"
 preserveAspectRatio="xMidYMid meet">

<g transform="translate(0.000000,512.000000) scale(0.100000,-0.100000)"
fill="#000000" stroke="none">
<path d="M505 5114 c-116 -25 -209 -66 -283 -128 -226 -187 -279 -473 -155
-845 150 -451 517 -876 940 -1090 207 -104 397 -151 617 -151 200 0 366 35
482 101 166 94 279 282 291 485 19 289 -184 555 -473 620 -76 16 -104 16 -300
-2 -163 -15 -312 73 -384 228 -27 58 -33 84 -40 191 -14 193 -67 315 -190 430
-79 75 -162 121 -266 147 -71 18 -185 25 -239 14z m259 -232 c89 -42 149 -100
192 -187 32 -64 36 -84 44 -191 5 -65 16 -144 25 -174 84 -277 341 -452 624
-424 169 16 239 11 312 -23 112 -52 180 -127 218 -241 54 -160 -4 -344 -142
-445 -94 -70 -250 -102 -457 -94 -231 8 -421 73 -638 217 -497 331 -848 996
-712 1352 25 66 101 156 164 193 108 63 257 70 370 17z"/>
<path d="M3750 5106 c-167 -36 -310 -115 -441 -246 -261 -261 -394 -648 -393
-1150 1 -221 17 -375 58 -560 35 -155 37 -156 351 -206 137 -21 530 -30 665
-15 369 42 659 168 866 375 125 125 199 248 240 397 14 47 18 99 18 199 -1
117 -5 147 -28 225 -48 161 -150 347 -257 468 l-42 49 110 111 c118 119 133
140 133 182 0 36 -59 95 -95 95 -42 0 -63 -15 -182 -133 l-111 -110 -49 42
c-122 108 -309 211 -468 256 -111 33 -277 42 -375 21z m335 -216 c339 -106
702 -471 806 -810 25 -79 32 -235 16 -312 l-8 -38 -95 100 c-106 110 -201 180
-285 210 -71 24 -227 44 -298 37 -63 -7 -113 10 -131 43 -7 13 -13 78 -15 154
-6 239 -43 324 -226 508 l-115 117 45 10 c71 15 225 6 306 -19z m-471 -160
c94 -76 184 -174 219 -238 32 -60 47 -152 45 -287 -1 -82 2 -108 19 -146 29
-65 86 -124 149 -155 49 -24 65 -26 196 -29 170 -3 222 -17 305 -79 81 -61
243 -239 243 -267 0 -21 -141 -150 -220 -202 -133 -86 -269 -139 -456 -178
-205 -42 -636 -35 -879 14 l-59 12 -13 60 c-49 241 -56 674 -14 879 39 187
103 346 193 479 42 62 171 197 188 197 5 0 43 -27 84 -60z"/>
<path d="M1280 2403 c-214 -23 -469 -123 -665 -262 -103 -72 -274 -243 -348
-347 -116 -165 -196 -343 -238 -534 -30 -137 -33 -353 -6 -480 52 -241 193
-460 384 -596 573 -410 1493 -96 1853 631 106 214 144 366 144 585 1 207 -30
341 -114 497 -193 358 -580 552 -1010 506z m340 -218 c36 -9 106 -36 155 -60
433 -209 559 -733 298 -1238 -287 -555 -972 -839 -1447 -600 -147 73 -257 180
-330 322 -70 136 -91 227 -90 401 0 114 5 164 22 233 88 357 335 665 669 835
107 54 224 95 318 111 33 6 71 13 85 15 51 9 257 -3 320 -19z"/>
<path d="M1449 1799 c-381 -32 -643 -202 -759 -491 -61 -153 -98 -391 -84
-547 13 -144 32 -156 244 -155 213 0 364 35 532 121 248 127 388 373 417 736
17 204 -1 304 -58 326 -39 14 -184 20 -292 10z m155 -281 c-20 -275 -98 -463
-236 -566 -71 -53 -121 -77 -221 -106 -94 -27 -324 -53 -339 -38 -15 15 11
245 38 340 59 204 163 321 350 394 94 36 205 56 322 57 l92 1 -6 -82z"/>
<path d="M3851 2280 c-54 -12 -123 -51 -148 -86 l-19 -26 -55 16 c-137 40
-325 50 -426 22 -114 -31 -214 -108 -250 -194 -59 -139 -58 -363 1 -530 l16
-43 -53 -52 c-61 -60 -80 -109 -79 -207 2 -148 111 -378 281 -590 81 -101 257
-274 340 -334 158 -114 357 -195 566 -232 137 -25 456 -25 609 -1 199 32 326
69 358 104 52 58 146 544 119 616 -17 43 -60 70 -106 64 -58 -8 -82 -40 -90
-124 -9 -101 -44 -306 -61 -363 -17 -57 -17 -57 -204 -92 -169 -31 -481 -31
-628 0 -180 39 -329 103 -452 195 -180 134 -397 398 -484 590 -61 132 -68 210
-23 242 30 21 135 19 232 -4 155 -38 477 -161 656 -251 77 -39 121 -39 160 -1
20 20 29 39 29 61 0 18 -30 98 -69 183 -90 201 -174 419 -206 542 -32 117 -38
242 -15 269 42 51 125 39 285 -40 237 -117 493 -338 619 -536 19 -31 46 -64
58 -72 59 -42 150 5 150 77 0 93 -189 322 -412 500 -270 217 -538 330 -699
297z m-273 -290 l62 -22 0 -43 c0 -105 61 -328 145 -531 24 -59 43 -109 42
-111 -2 -1 -39 13 -84 31 -178 75 -369 130 -525 151 -43 6 -47 9 -62 47 -43
106 -60 292 -35 381 14 50 55 94 104 113 62 22 271 13 353 -16z"/>
<path d="M4951 1196 c-87 -48 -50 -186 49 -186 51 0 100 49 100 99 0 75 -83
124 -149 87z"/>
</g>
</svg>
