<?xml version="1.0" standalone="no"?>
<!DOCTYPE svg PUBLIC "-//W3C//DTD SVG 20010904//EN"
 "http://www.w3.org/TR/2001/REC-SVG-20010904/DTD/svg10.dtd">
<svg version="1.0" xmlns="http://www.w3.org/2000/svg"
 width="512.000000pt" height="512.000000pt" viewBox="0 0 512.000000 512.000000"
 preserveAspectRatio="xMidYMid meet">

<g transform="translate(0.000000,512.000000) scale(0.100000,-0.100000)"
fill="#000000" stroke="none">
<path d="M1320 5114 c-419 -25 -879 -117 -1033 -208 -75 -43 -124 -145 -177
-371 -108 -459 -139 -1043 -74 -1365 66 -325 274 -664 537 -875 163 -131 288
-202 522 -295 239 -95 383 -187 546 -349 171 -172 259 -311 369 -583 70 -173
95 -225 153 -318 192 -308 499 -554 831 -665 228 -76 502 -100 851 -75 472 35
935 141 1030 236 113 113 225 668 241 1197 12 381 -29 613 -152 864 -146 297
-411 566 -705 714 -43 21 -145 65 -226 98 -251 100 -394 192 -558 356 -160
160 -264 324 -364 578 -107 268 -193 406 -371 591 -227 236 -518 391 -847 451
-87 16 -430 27 -573 19z m485 -225 c287 -33 548 -163 765 -379 156 -156 259
-319 341 -536 195 -522 540 -867 1062 -1063 235 -88 408 -200 564 -365 194
-205 307 -432 348 -701 34 -218 18 -645 -36 -952 -11 -65 -25 -146 -31 -181
-6 -35 -14 -59 -18 -55 -17 18 -51 203 -80 434 -41 334 -66 475 -105 595 -128
389 -431 733 -810 919 -49 24 -147 66 -216 93 -218 87 -377 187 -522 329 -173
169 -272 325 -387 608 -68 168 -105 241 -178 351 -161 239 -382 432 -637 554
-177 84 -284 112 -650 170 -270 42 -559 90 -563 94 -1 2 12 6 30 9 511 90 816
111 1123 76z m-1320 -268 c82 -22 259 -53 660 -116 287 -45 393 -67 492 -101
270 -93 523 -291 687 -539 70 -105 104 -173 172 -346 196 -501 524 -825 1039
-1029 224 -89 335 -153 477 -274 138 -118 271 -292 342 -449 77 -168 106 -298
150 -668 40 -330 64 -445 131 -631 l34 -97 -67 -20 c-205 -61 -546 -114 -834
-130 -181 -11 -438 1 -548 24 -248 52 -481 178 -664 361 -157 155 -247 298
-347 545 -82 202 -109 257 -186 374 -210 318 -492 539 -876 684 -227 86 -378
182 -532 336 -191 191 -317 420 -369 670 -41 196 -39 548 5 883 21 165 67 410
94 501 18 60 5 58 140 22z"/>
<path d="M1537 4030 c-38 -30 -51 -84 -30 -128 14 -29 32 -41 121 -83 89 -42
115 -60 177 -123 56 -57 77 -86 94 -132 37 -104 53 -128 94 -141 31 -11 44
-10 72 1 82 34 85 114 10 262 -73 144 -197 258 -362 330 -90 39 -139 43 -176
14z"/>
<path d="M465 3807 c-45 -45 -46 -88 -6 -172 46 -98 141 -179 247 -211 39 -11
51 -11 79 0 42 18 65 52 65 96 0 48 -21 75 -83 106 -69 35 -104 69 -129 126
-26 60 -47 78 -97 85 -36 5 -44 2 -76 -30z"/>
<path d="M1350 3193 c-59 -23 -80 -83 -56 -162 58 -195 225 -365 439 -447 79
-30 121 -27 158 12 31 33 33 102 4 134 -11 12 -58 40 -104 61 -153 71 -249
167 -290 292 -12 35 -32 74 -45 86 -24 22 -79 35 -106 24z"/>
<path d="M2607 2329 c-22 -13 -47 -61 -47 -91 1 -41 48 -158 90 -224 77 -117
213 -225 352 -280 88 -34 122 -32 165 11 32 32 35 39 30 78 -4 31 -14 49 -38
70 -18 15 -38 27 -45 27 -25 0 -151 72 -198 112 -61 52 -120 142 -141 213 -19
67 -52 95 -109 95 -22 0 -49 -5 -59 -11z"/>
<path d="M3873 1455 c-32 -32 -35 -40 -30 -76 7 -50 25 -71 85 -99 64 -30 100
-65 127 -126 27 -61 56 -84 108 -84 91 0 125 100 72 207 -53 105 -199 213
-290 213 -29 0 -45 -8 -72 -35z"/>
<path d="M2828 1264 c-36 -19 -48 -43 -48 -94 0 -136 135 -329 304 -435 78
-48 192 -95 232 -95 38 0 94 59 94 99 0 61 -18 80 -126 132 -161 77 -249 168
-295 306 -16 50 -28 69 -53 84 -37 22 -71 24 -108 3z"/>
</g>
</svg>
