<?xml version="1.0" standalone="no"?>
<!DOCTYPE svg PUBLIC "-//W3C//DTD SVG 20010904//EN"
 "http://www.w3.org/TR/2001/REC-SVG-20010904/DTD/svg10.dtd">
<svg version="1.0" xmlns="http://www.w3.org/2000/svg"
 width="512.000000pt" height="512.000000pt" viewBox="0 0 512.000000 512.000000"
 preserveAspectRatio="xMidYMid meet">

<g transform="translate(0.000000,512.000000) scale(0.100000,-0.100000)"
fill="#000000" stroke="none">
<path d="M3568 5105 c-205 -52 -484 -300 -592 -525 -115 -239 -45 -481 212
-737 211 -210 473 -361 737 -423 229 -55 598 -36 664 33 47 51 79 287 62 469
-22 228 -84 413 -209 623 -145 243 -398 477 -585 542 -89 31 -208 39 -289 18z
m233 -215 c98 -36 235 -149 348 -286 133 -160 217 -322 268 -511 24 -88 27
-116 27 -280 1 -162 -1 -184 -17 -200 -16 -16 -38 -18 -200 -17 -163 0 -192 3
-278 26 -119 32 -240 84 -341 146 -179 109 -373 299 -440 431 -30 60 -33 73
-33 156 0 79 4 96 29 145 41 78 93 145 178 226 183 176 307 221 459 164z"/>
<path d="M1005 4020 c-220 -35 -377 -134 -459 -290 -67 -128 -95 -325 -76
-537 14 -161 44 -258 109 -349 115 -164 272 -231 559 -241 402 -14 760 105
1041 347 131 112 271 301 271 365 0 63 -147 257 -279 368 -198 168 -441 279
-706 323 -111 18 -379 26 -460 14z m345 -205 c203 -17 403 -87 575 -201 94
-62 231 -191 279 -261 l28 -42 -50 -63 c-174 -219 -426 -365 -732 -424 -130
-25 -397 -25 -489 0 -216 58 -291 184 -291 491 0 349 106 479 410 505 84 7
122 6 270 -5z"/>
<path d="M2965 2664 c-118 -22 -146 -38 -167 -100 -48 -144 -49 -439 -4 -619
71 -278 209 -516 425 -732 161 -161 322 -250 473 -260 185 -13 348 67 545 268
182 186 253 324 253 494 0 128 -46 246 -148 382 -63 83 -199 214 -307 294
-183 138 -410 236 -629 274 -111 19 -333 18 -441 -1z m393 -199 c309 -46 604
-223 824 -496 21 -25 52 -76 70 -115 27 -57 32 -81 33 -139 0 -62 -5 -80 -37
-145 -43 -86 -128 -188 -231 -277 -82 -72 -159 -115 -234 -133 -103 -24 -225
23 -356 137 -292 255 -467 615 -467 958 0 74 15 193 25 203 22 23 243 27 373
7z"/>
<path d="M3448 1585 c-35 -20 -48 -44 -48 -91 0 -52 62 -114 114 -114 48 0 82
23 96 65 15 44 5 76 -34 114 -39 38 -89 48 -128 26z"/>
<path d="M3875 1566 c-28 -20 -63 -44 -79 -54 -107 -64 -126 -91 -107 -152 22
-75 90 -89 187 -40 73 36 159 118 167 157 6 31 -12 81 -36 101 -8 7 -30 15
-49 18 -27 5 -42 -1 -83 -30z"/>
<path d="M1550 1949 c-333 -216 -541 -556 -606 -993 -22 -152 -15 -407 15
-519 58 -220 209 -364 431 -414 109 -25 385 -24 500 0 237 51 379 190 441 432
20 77 23 115 23 260 0 345 -73 603 -245 866 -111 170 -363 394 -458 406 -30 4
-47 -3 -101 -38z m243 -308 c241 -234 358 -536 358 -926 0 -286 -77 -428 -257
-481 -124 -36 -396 -35 -507 2 -127 42 -195 119 -234 267 -24 90 -24 360 1
487 58 299 205 556 413 721 l75 59 31 -22 c18 -12 71 -60 120 -107z"/>
</g>
</svg>
