<?xml version="1.0" standalone="no"?>
<!DOCTYPE svg PUBLIC "-//W3C//DTD SVG 20010904//EN"
 "http://www.w3.org/TR/2001/REC-SVG-20010904/DTD/svg10.dtd">
<svg version="1.0" xmlns="http://www.w3.org/2000/svg"
 width="512.000000pt" height="512.000000pt" viewBox="0 0 512.000000 512.000000"
 preserveAspectRatio="xMidYMid meet">

<g transform="translate(0.000000,512.000000) scale(0.100000,-0.100000)"
fill="#000000" stroke="none">
<path d="M4306 4980 c-61 -19 -157 -79 -180 -112 -13 -18 -16 -17 -80 13 -97
45 -183 56 -278 35 -154 -34 -293 -164 -323 -304 -7 -32 -25 -35 -25 -4 0 36
-62 145 -111 197 -88 93 -173 137 -296 155 -140 19 -297 -33 -398 -134 l-54
-54 -63 25 c-177 72 -371 10 -466 -147 -43 -72 -55 -120 -55 -205 1 -101 29
-166 109 -256 36 -41 76 -90 88 -109 80 -126 91 -292 29 -434 -24 -55 -75
-109 -549 -586 -348 -350 -525 -534 -529 -552 -19 -75 46 -143 118 -124 12 3
263 247 558 543 511 513 538 542 573 613 20 41 43 104 52 140 20 78 22 224 5
300 -23 98 -93 228 -170 312 -81 90 -98 133 -80 200 16 60 42 93 92 117 82 40
153 21 227 -59 39 -42 52 -50 82 -50 47 0 81 29 111 94 66 144 231 209 372
147 95 -42 145 -110 170 -230 15 -69 36 -97 81 -106 13 -3 34 -7 47 -10 73
-14 131 -95 130 -177 -2 -156 -214 -229 -306 -106 -56 75 -84 98 -122 98 -52
0 -95 -44 -95 -97 0 -75 91 -181 195 -230 53 -25 72 -28 155 -28 88 0 101 3
162 33 112 55 187 156 207 279 11 71 1 142 -33 228 -34 83 -33 137 2 206 49
97 153 144 258 118 37 -10 63 -27 113 -76 59 -56 70 -63 107 -63 47 0 84 33
103 91 6 19 26 50 44 67 160 155 397 -6 322 -219 -30 -83 10 -137 107 -146 65
-5 100 -26 127 -73 34 -61 25 -115 -29 -177 -23 -25 -30 -44 -30 -74 0 -42 20
-68 85 -113 30 -21 55 -71 55 -113 0 -27 -12 -49 -66 -123 -27 -38 -28 -57 -4
-140 11 -40 11 -50 -5 -83 l-17 -37 -42 38 c-164 152 -410 162 -568 23 -30
-26 -41 -29 -123 -33 -104 -5 -176 -32 -242 -92 l-40 -35 -22 39 c-12 21 -42
56 -66 78 l-44 39 192 190 c156 155 200 193 234 203 52 16 104 6 141 -25 45
-37 79 -47 118 -35 44 15 64 45 64 95 0 34 -6 47 -37 77 -21 21 -65 49 -98 65
-51 23 -73 28 -145 28 -136 0 -167 -19 -387 -237 l-183 -182 -17 24 c-31 44
-77 82 -133 109 -46 22 -69 26 -141 26 -77 0 -92 -3 -148 -32 l-62 -32 -62 16
c-241 61 -476 -149 -437 -392 l8 -50 -933 -935 c-734 -736 -938 -946 -958
-985 -49 -101 -61 -153 -61 -281 -1 -116 -2 -122 -31 -169 -54 -87 -158 -119
-250 -76 -53 25 -88 63 -122 136 -24 51 -28 73 -28 145 0 140 12 158 300 449
228 231 245 251 245 284 0 24 -9 46 -26 66 -22 26 -33 31 -72 31 l-47 0 -251
-252 c-143 -145 -262 -273 -278 -301 -96 -167 -99 -347 -9 -534 35 -73 57 -98
318 -361 154 -156 307 -304 340 -329 80 -61 152 -92 254 -110 201 -35 419 50
538 211 60 80 84 137 118 275 33 139 68 227 130 328 40 65 138 168 589 620
577 580 578 581 687 590 91 9 151 -15 248 -97 46 -39 105 -82 132 -96 157 -79
356 -69 498 25 l44 30 41 -21 c133 -68 307 -62 438 15 65 38 145 128 181 204
27 58 32 82 35 164 l4 96 51 6 c108 13 222 99 275 207 24 49 27 66 27 155 0
110 -16 160 -75 235 -27 34 -30 45 -30 110 0 73 0 73 40 107 22 20 53 62 72
101 29 59 33 76 34 152 0 73 4 93 30 145 25 52 29 71 29 145 0 92 -20 152 -69
210 l-24 29 20 63 c50 160 -28 341 -178 409 l-41 19 -5 67 c-8 95 -40 173 -99
237 -110 120 -264 164 -413 116z m-949 -1360 c53 -32 68 -65 68 -146 1 -88 14
-107 94 -131 66 -19 107 -57 116 -106 10 -53 0 -82 -48 -134 -42 -45 -42 -46
-47 -138 -5 -82 -9 -97 -34 -130 -64 -84 -174 -97 -270 -31 -65 45 -111 48
-149 11 -54 -55 -39 -121 40 -179 107 -80 268 -97 388 -42 122 56 213 183 224
314 l6 67 32 -56 c62 -109 131 -138 195 -80 27 24 33 36 33 69 0 28 -7 48 -22
64 -40 44 -55 88 -51 143 5 63 35 108 90 136 41 21 45 21 180 3 l47 -6 63 64
c64 65 110 88 174 88 81 0 159 -48 199 -122 27 -49 27 -54 21 -150 l-7 -100
40 -38 c61 -58 81 -97 81 -156 0 -59 -26 -105 -80 -142 -29 -20 -45 -23 -96
-20 -49 3 -69 10 -104 36 -31 23 -55 32 -81 32 -90 0 -127 -98 -65 -171 46
-54 66 -107 66 -177 0 -34 -6 -77 -14 -96 -21 -51 -76 -107 -131 -132 -93 -44
-187 -27 -294 51 -53 39 -91 34 -151 -20 -71 -63 -123 -87 -201 -93 -96 -7
-151 15 -240 94 -183 162 -388 196 -587 99 -74 -36 -100 -61 -608 -569 -293
-292 -553 -560 -579 -596 -111 -153 -166 -273 -214 -469 -36 -143 -60 -190
-131 -254 -100 -90 -247 -116 -375 -67 -52 20 -81 44 -223 183 -89 89 -162
163 -162 166 0 3 26 17 58 31 71 30 161 119 188 184 14 34 26 48 44 52 156 31
292 87 389 158 25 19 315 304 644 634 566 566 599 601 600 635 2 67 -59 118
-121 102 -18 -4 -231 -209 -627 -604 -351 -349 -621 -611 -651 -629 -61 -38
-154 -77 -207 -87 l-39 -8 7 49 c18 123 -22 78 953 1055 l905 907 48 -2 c40
-1 53 4 74 25 41 41 42 85 4 142 -37 56 -48 99 -38 145 10 48 34 79 79 102 54
27 88 25 155 -10 78 -41 106 -39 158 10 69 63 126 76 184 40z"/>
<path d="M2612 2755 c-64 -28 -75 -114 -20 -160 63 -53 158 -11 158 70 0 49
-15 74 -55 91 -41 17 -42 17 -83 -1z"/>
<path d="M888 2284 c-85 -46 -51 -184 45 -184 42 0 92 37 101 75 9 36 -17 91
-53 109 -37 20 -58 20 -93 0z"/>
</g>
</svg>
