<?xml version="1.0" standalone="no"?>
<!DOCTYPE svg PUBLIC "-//W3C//DTD SVG 20010904//EN"
 "http://www.w3.org/TR/2001/REC-SVG-20010904/DTD/svg10.dtd">
<svg version="1.0" xmlns="http://www.w3.org/2000/svg"
 width="512.000000pt" height="512.000000pt" viewBox="0 0 512.000000 512.000000"
 preserveAspectRatio="xMidYMid meet">

<g transform="translate(0.000000,512.000000) scale(0.100000,-0.100000)"
fill="#000000" stroke="none">
<path d="M1948 2922 c-1468 -1467 -1588 -1590 -1588 -1620 0 -18 6 -45 14 -60
8 -15 151 -163 318 -329 302 -301 312 -310 368 -304 52 6 96 67 84 118 -4 15
-43 65 -88 111 l-80 83 577 577 577 577 327 -326 c181 -180 338 -332 350 -338
51 -26 107 -3 353 139 595 345 1067 812 1412 1395 118 200 188 342 188 383 0
35 -21 58 -573 609 -565 566 -573 573 -612 573 -40 0 -48 -8 -1627 -1588z
m2170 645 c-258 -507 -679 -980 -1163 -1306 -144 -97 -270 -173 -377 -227
l-71 -36 -118 118 -118 118 40 44 c99 107 123 275 57 406 -27 54 -93 123 -143
148 -22 11 -42 22 -44 24 -2 2 309 318 690 703 l694 700 300 -300 300 -299
-47 -93z m309 -169 l102 -101 -36 -71 c-126 -252 -336 -552 -555 -793 -262
-289 -682 -608 -1011 -769 l-57 -28 -105 104 -104 104 122 69 c436 247 807
562 1113 943 115 143 288 400 364 541 30 56 57 103 60 103 2 0 51 -46 107
-102z m-2291 -748 c46 -29 76 -95 68 -151 -6 -42 -33 -71 -695 -734 l-689
-690 -107 108 -108 107 670 671 c369 369 684 680 700 690 41 26 118 25 161 -1z"/>
<path d="M3514 3762 c-54 -43 -55 -112 -3 -156 72 -61 180 3 162 97 -12 64
-109 100 -159 59z"/>
</g>
</svg>
