<svg id="svg" version="1.1" xmlns="http://www.w3.org/2000/svg" xmlns:xlink="http://www.w3.org/1999/xlink" width="400" height="400" viewBox="0, 0, 400,400"><g id="svgg"><path id="path0" d="M188.000 24.478 C 174.321 26.138,170.615 26.691,163.816 28.089 C 150.307 30.867,118.138 42.788,116.352 45.678 C 116.120 46.054,112.796 47.993,108.965 49.988 C 88.824 60.476,60.308 89.171,48.896 110.431 C 15.417 172.806,15.417 227.194,48.896 289.569 C 60.364 310.933,90.509 341.215,109.437 350.384 C 111.995 351.623,115.400 353.527,117.003 354.614 C 139.765 370.061,190.147 379.245,224.000 374.118 C 244.435 371.023,277.049 360.116,283.976 354.059 C 284.649 353.471,288.031 351.501,291.491 349.683 C 307.309 341.368,332.598 317.570,344.906 299.416 C 347.063 296.234,349.152 292.779,349.547 291.738 C 349.943 290.697,351.772 287.386,353.612 284.381 C 376.655 246.732,382.034 190.161,366.798 145.683 C 362.454 133.001,357.912 122.645,353.612 115.619 C 351.772 112.614,349.943 109.303,349.547 108.262 C 349.152 107.221,347.063 103.766,344.906 100.584 C 332.598 82.430,307.309 58.632,291.491 50.317 C 288.031 48.499,284.649 46.529,283.976 45.941 C 270.525 34.180,213.373 21.399,188.000 24.478 M225.199 49.559 C 245.333 51.961,269.391 62.229,289.039 76.808 L 299.105 84.276 289.066 94.738 C 283.545 100.492,267.445 116.540,253.287 130.400 C 239.130 144.260,195.420 187.730,156.153 227.000 C 116.886 266.270,84.498 298.387,84.180 298.371 C 83.861 298.355,80.395 293.991,76.477 288.672 C 52.692 256.381,44.292 221.079,49.572 175.600 C 55.945 120.698,106.082 65.630,162.000 52.112 C 178.120 48.215,204.876 47.134,225.199 49.559 M323.825 111.788 C 353.038 151.358,360.709 208.845,342.771 253.760 C 308.410 339.794,210.898 377.147,129.938 335.286 C 121.877 331.118,101.698 317.234,101.629 315.807 C 101.613 315.481,135.085 281.641,176.011 240.607 C 216.937 199.573,265.053 151.313,282.934 133.363 C 300.815 115.412,315.705 101.012,316.022 101.363 C 316.339 101.713,319.850 106.405,323.825 111.788 " stroke="none" fill="#000000" fill-rule="evenodd"></path></g></svg>