<?xml version="1.0" standalone="no"?>
<!DOCTYPE svg PUBLIC "-//W3C//DTD SVG 20010904//EN"
 "http://www.w3.org/TR/2001/REC-SVG-20010904/DTD/svg10.dtd">
<svg version="1.0" xmlns="http://www.w3.org/2000/svg"
 width="512.000000pt" height="512.000000pt" viewBox="0 0 512.000000 512.000000"
 preserveAspectRatio="xMidYMid meet">

<g transform="translate(0.000000,512.000000) scale(0.100000,-0.100000)"
fill="#000000" stroke="none">
<path d="M4201 4895 c-24 -7 -61 -31 -83 -52 -57 -56 -68 -104 -68 -304 l0
-168 -83 63 c-267 201 -582 345 -922 420 -291 64 -683 62 -995 -5 -225 -49
-526 -172 -729 -298 -261 -162 -530 -419 -699 -668 -530 -782 -544 -1810 -35
-2593 128 -196 319 -410 488 -547 409 -331 913 -517 1420 -526 111 -2 123 0
165 23 67 38 103 96 108 174 5 74 -16 125 -72 173 -47 42 -80 50 -226 57 -941
43 -1703 754 -1820 1696 -13 109 -13 331 0 440 53 425 234 808 524 1108 586
606 1474 763 2231 392 113 -55 263 -148 330 -204 l30 -25 -203 -1 c-179 0
-207 -2 -240 -19 -162 -83 -162 -299 0 -382 35 -18 64 -19 513 -19 519 0 517
0 579 58 16 15 37 45 47 67 17 37 19 74 19 511 l0 472 -28 53 c-48 92 -153
136 -251 104z"/>
<path d="M2460 4028 c-25 -14 -58 -44 -75 -67 l-30 -43 -3 -696 c-2 -506 0
-708 9 -737 9 -33 69 -99 347 -378 185 -185 354 -350 376 -365 34 -24 49 -27
116 -27 67 0 81 3 116 27 59 42 87 90 92 158 8 106 8 107 -329 445 l-309 311
-2 630 -3 631 -27 39 c-44 62 -90 88 -167 92 -55 3 -74 -1 -111 -20z"/>
<path d="M4605 2752 c-141 -68 -167 -248 -50 -350 47 -42 74 -52 136 -52 124
0 212 87 212 211 0 71 -36 137 -95 176 -54 36 -145 42 -203 15z"/>
<path d="M4445 1935 c-141 -76 -167 -251 -52 -352 46 -40 97 -56 163 -51 192
16 256 270 96 382 -35 25 -55 31 -110 34 -48 2 -76 -2 -97 -13z"/>
<path d="M4006 1258 c-60 -16 -130 -91 -145 -155 -23 -96 21 -193 110 -237 89
-44 176 -30 246 40 153 153 -2 409 -211 352z"/>
<path d="M3305 788 c-71 -25 -126 -92 -140 -170 -12 -63 18 -140 71 -187 129
-114 323 -43 350 128 24 152 -134 281 -281 229z"/>
</g>
</svg>
